<?xml version="1.0" standalone="no"?>
<!DOCTYPE svg PUBLIC "-//W3C//DTD SVG 20010904//EN"
 "http://www.w3.org/TR/2001/REC-SVG-20010904/DTD/svg10.dtd">
<svg version="1.0" xmlns="http://www.w3.org/2000/svg"
 width="215.000000pt" height="215.000000pt" viewBox="0 0 215.000000 215.000000"
 preserveAspectRatio="xMidYMid meet">

<g transform="translate(0.000000,215.000000) scale(0.100000,-0.100000)"
fill="#000000" stroke="none">
<path d="M635 2090 c-226 -48 -435 -217 -535 -431 -84 -182 -86 -366 -5 -559
16 -38 26 -92 34 -175 14 -152 39 -244 101 -370 128 -259 361 -450 642 -527
72 -20 107 -23 263 -23 158 0 190 3 260 23 300 87 551 305 666 580 91 220 103
471 32 697 -81 256 -273 479 -518 602 -119 60 -297 103 -426 103 -31 0 -66 8
-91 21 -92 47 -150 61 -268 65 -63 1 -133 -1 -155 -6z m708 -182 c248 -84 459
-279 554 -510 89 -217 95 -459 16 -669 l-28 -74 -7 67 c-19 163 -107 287 -255
356 -53 24 -69 27 -173 27 -109 0 -119 -2 -183 -32 -160 -76 -258 -245 -244
-422 16 -210 169 -366 391 -397 59 -8 50 -15 -59 -49 -447 -137 -925 88 -1104
520 -31 73 -65 199 -59 216 2 6 86 -76 187 -180 102 -105 186 -189 188 -188 1
2 -9 48 -23 103 -33 131 -42 283 -20 383 9 41 35 113 58 160 35 72 59 103 142
186 103 103 200 166 301 194 117 34 292 30 445 -9 43 -11 82 -20 87 -20 4 0
-75 84 -177 186 l-185 186 43 -6 c24 -4 71 -16 105 -28z"/>
<path d="M1190 1460 c-294 -36 -521 -291 -523 -590 -1 -147 35 -256 123 -376
33 -43 120 -127 127 -121 1 1 -14 34 -33 72 -45 93 -64 172 -64 270 0 165 61
312 177 428 153 153 377 213 583 156 41 -11 84 -26 95 -33 76 -48 63 -12 -19
55 -134 110 -299 159 -466 139z"/>
</g>
</svg>
